<?xml version="1.0" encoding="UTF-8" standalone="no"?>
<!DOCTYPE svg PUBLIC "-//W3C//DTD SVG 1.1//EN" "http://www.w3.org/Graphics/SVG/1.1/DTD/svg11.dtd">
<svg width="100%" height="100%" viewBox="0 0 120 120" version="1.1" xmlns="http://www.w3.org/2000/svg" xmlns:xlink="http://www.w3.org/1999/xlink" xml:space="preserve" xmlns:serif="http://www.serif.com/" style="fill-rule:evenodd;clip-rule:evenodd;stroke-linejoin:round;stroke-miterlimit:2;">
    <g id="Short-Circled" serif:id="Short Circled" transform="matrix(0.027506,0,0,0.027506,15.0925,10.8402)">
        <g transform="matrix(36.3557,0,0,36.3557,-533.738,-387.031)">
            <circle cx="59.588" cy="59.806" r="59.544" style="fill:white;"/>
        </g>
        <g>
            <g transform="matrix(1.39148,0,0,1.39148,-645.95,-3519.75)">
                <path d="M989.347,4465.78C955.345,4462.02 926.695,4438.7 916.124,4406.16C866.083,4252.19 724.871,3817.59 724.871,3817.59L1650,3145.45L2575.13,3817.59C2575.13,3817.59 2434.62,4250.02 2384.88,4403.13C2374.36,4435.49 2345.95,4458.76 2312.16,4462.69C2109.53,4485.57 1879.9,4498.49 1636.67,4498.49C1404.62,4498.49 1184.95,4486.73 989.347,4465.78Z" style="fill:rgb(255,192,0);"/>
            </g>
            <g transform="matrix(1,0,0,1,-0.400973,0)">
                <g transform="matrix(1.24201,0,0,1.24201,-1942.55,652.463)">
                    <circle cx="1867.93" cy="779.91" r="224.584" style="fill:rgb(255,192,0);"/>
                </g>
                <g transform="matrix(-1.24201,0,0,1.24201,5243.35,652.463)">
                    <circle cx="1867.93" cy="779.91" r="224.584" style="fill:rgb(255,192,0);"/>
                </g>
            </g>
            <g transform="matrix(1.42913,0,0,1.42913,-1019.52,-384.557)">
                <circle cx="1867.93" cy="779.91" r="224.584" style="fill:rgb(255,192,0);"/>
            </g>
        </g>
        <g transform="matrix(0.970545,0,0,0.970545,37.823,67.5331)">
            <g>
                <g transform="matrix(-0.949884,0,0,0.949884,4466.6,243.108)">
                    <circle cx="1867.93" cy="779.91" r="224.584" style="fill:rgb(255,192,0);"/>
                </g>
                <g transform="matrix(-0.949884,0,0,0.949884,2404.25,261.137)">
                    <circle cx="1867.93" cy="779.91" r="224.584" style="fill:rgb(255,192,0);"/>
                </g>
            </g>
            <g transform="matrix(0.888051,0,0,0.888051,184.609,436.094)">
                <clipPath id="_clip1">
                    <path d="M2727.53,874.252C2727.53,838.917 2698.84,810.229 2663.51,810.229L658.663,810.229C623.328,810.229 594.64,838.917 594.64,874.252L594.64,2026.67C594.64,2062 623.328,2090.69 658.663,2090.69L2663.51,2090.69C2698.84,2090.69 2727.53,2062 2727.53,2026.67L2727.53,874.252Z"/>
                </clipPath>
                <g clip-path="url(#_clip1)">
                    <g transform="matrix(1,0,0,1,13.8007,-634.103)">
                        <rect x="580.365" y="1443.23" width="2136.73" height="1286.62" style="fill:rgb(245,234,255);"/>
                    </g>
                    <g transform="matrix(0.993144,0,0,0.993144,25.0944,-616.477)">
                        <path d="M1648.59,1587.63L2723.96,2731.13L573.221,2731.13L1648.59,1587.63Z" style="fill:rgb(249,255,255);"/>
                    </g>
                    <g transform="matrix(0.99338,1.75284e-17,-1.75284e-17,-0.85025,25.1565,3128.59)">
                        <path d="M1648.59,1587.63L2723.96,2731.13L573.221,2731.13L1648.59,1587.63Z" style="fill:rgb(249,255,255);"/>
                    </g>
                    <g transform="matrix(1,0,0,1,34.971,-639.204)">
                        <path d="M1627.56,1815.12C1675.31,1767.93 1875.02,1593.58 2041.18,1794.03C2246.64,2041.88 1745.15,2396.04 1636.86,2468.13C1631.6,2471.64 1631.19,2471.54 1627.56,2474.27C1621.92,2470.58 1622.48,2470.94 1618.26,2468.13C1509.96,2396.04 1008.48,2041.88 1213.93,1794.03C1380.09,1593.58 1579.81,1767.93 1627.56,1815.12Z" style="fill:rgb(247,38,8);"/>
                    </g>
                </g>
            </g>
            <g transform="matrix(0.774915,0,0,0.465213,353.775,858.663)">
                <path d="M3067.7,758.472C3067.7,545.314 2963.8,372.257 2835.84,372.257C2835.84,372.257 538.289,372.257 538.289,372.257C410.321,372.257 306.428,545.314 306.428,758.472L306.428,2958.33C306.428,3171.49 410.321,3344.55 538.289,3344.55L2835.84,3344.55C2963.8,3344.55 3067.7,3171.49 3067.7,2958.33C3067.7,2958.33 3067.7,758.472 3067.7,758.472ZM2909.21,758.472C2909.21,691.02 2876.33,636.257 2835.84,636.257L538.289,636.257C497.794,636.257 464.918,691.02 464.918,758.472L464.918,2958.33C464.918,3025.78 497.794,3080.55 538.289,3080.55L2835.84,3080.55C2876.33,3080.55 2909.21,3025.78 2909.21,2958.33L2909.21,758.472Z" style="fill:rgb(255,191,0);"/>
            </g>
        </g>
    </g>
</svg>
